<?xml version="1.0" encoding="utf-8"?>
<!-- Generator: Adobe Illustrator 21.1.0, SVG Export Plug-In . SVG Version: 6.00 Build 0)  -->
<svg version="1.1" id="Слой_1" xmlns="http://www.w3.org/2000/svg" xmlns:xlink="http://www.w3.org/1999/xlink" x="0px" y="0px"
	 viewBox="0 0 500 376.7" style="enable-background:new 0 0 500 376.7;" xml:space="preserve">
<style type="text/css">
	.st0{fill:none;stroke:#FFFFFF;stroke-width:8;stroke-linecap:round;stroke-linejoin:round;stroke-miterlimit:10;}
</style>
<path class="st0" d="M306.4,175.8c27-22.7,61.9-36.4,100-36.4h14.8v14.8c0,38.1-13.7,72.9-36.4,100"/>
<path class="st0" d="M117.1,254.2c-22.7-27-36.4-61.9-36.4-99.9v-14.8h14.8c38.1,0,72.9,13.7,100,36.4"/>
<path class="st0" d="M250.9,309.6l10.5-10.5c60.7-60.7,159.1-60.7,219.7,0l10.5,10.5l-10.5,10.5c-60.7,60.7-159.1,60.7-219.7,0
	L250.9,309.6z"/>
<path class="st0" d="M250.9,309.6l-10.5,10.5c-60.7,60.7-159.1,60.7-219.7,0l-10.5-10.5l10.5-10.5c60.7-60.7,159.1-60.7,219.7,0
	L250.9,309.6z"/>
<path class="st0" d="M250.9,309.6l-10.5-10.5c-60.7-60.7-60.7-159.1,0-219.7l10.5-10.5l10.5,10.5c60.7,60.7,60.7,159.1,0,219.7
	L250.9,309.6z"/>
<circle class="st0" cx="250.2" cy="23.3" r="14.6"/>
<circle class="st0" cx="173.5" cy="104.1" r="14.6"/>
<circle class="st0" cx="328.4" cy="104.1" r="14.6"/>
</svg>
